custom-analysis
version=1
nRows=17
nColumns=38
inDegrees=no

This file contains tibia displacement and acting force.

Units are S.I. units (seconds, meters, Newtons, ...)
Angles are in degrees.

endheader
time	APT	SIT	knee_angle	aACL_R_force	pACL_R_force	aPCL_R_force	pPCL_R_force	aMCL_R_force	aLCL_R_force	aPCL_L_force	pPCL_L_force	aMCL_L_force	aLCL_L_force	aACL_R_length	pACL_R_length	aPCL_R_length	pPCL_R_length	aMCL_R_length	aLCL_R_length	aPCL_L_length	pPCL_L_length	aMCL_L_length	aLCL_L_length	aACL_R_strain	pACL_R_strain	aPCL_R_strain	pPCL_R_strain	aMCL_R_strain	aLCL_R_strain	aPCL_L_strain	pPCL_L_strain	aMCL_L_strain	aLCL_L_strain	femur_lat_meniscii_force_r	femur_med_meniscii_force_r	femur_lat_tibia_force_r	femur_med_tibia_force_r
      0.00000000	      0.00000000	      0.00000000	      1.66574369	    275.29385960	    388.39173622	      0.00000000	    347.95306591	      1.35652550	   1303.25827576	      0.32189536	   2648.00691844	    129.61505198	    527.44014571	      0.03842843	      0.03062148	      0.02538015	      0.02718154	      0.07425932	      0.06233587	      0.02702386	      0.03369366	      0.07928817	      0.05733375	      0.21352924	      0.27274484	     -0.05231316	      0.10544931	      0.00777747	      0.17415895	      0.00906246	      0.37029145	      0.07602428	      0.07993889	      0.00000000	      0.00000000	      0.00000000	      0.00000000
      0.00053499	     -0.00004635	      0.00007404	      1.66412742	    122.88969245	    236.32873957	      0.00000000	     88.77633489	   -217.48927878	    999.22739009	   -233.12673824	   1793.07479420	   -180.63366468	    106.58466442	      0.03831882	      0.03051716	      0.02535510	      0.02710809	      0.07417216	      0.06224461	      0.02683333	      0.03345533	      0.07916449	      0.05720407	      0.21006803	      0.26840854	     -0.05324854	      0.10246243	      0.00659457	      0.17244001	      0.00194819	      0.36059895	      0.07434586	      0.07749636	      0.00000000	      0.00000000	      0.00000000	      0.00000000
      0.00067189	     -0.00006977	      0.00011254	      1.66327647	     94.03062258	    206.52825697	      0.00000000	     36.31736772	   -257.09740629	    937.83868857	      0.00000000	   1615.79842349	   -234.37518288	     30.47838867	      0.03826256	      0.03046339	      0.02534185	      0.02707033	      0.07412721	      0.06219715	      0.02673829	      0.03333462	      0.07910226	      0.05713918	      0.20829136	      0.26617390	     -0.05374330	      0.10092666	      0.00598464	      0.17154608	     -0.00160060	      0.35568961	      0.07350126	      0.07627398	      0.00000000	      0.00000000	      0.00000000	      0.00000000
      0.00080879	     -0.00009648	      0.00015717	      1.66228535	     68.70245931	    179.85415324	      0.00000000	    -10.45136190	   -290.77262280	    882.33673985	      0.00000000	   1437.98490903	   -282.08602986	    -41.18844588	      0.03819783	      0.03040137	      0.02532645	      0.02702693	      0.07407542	      0.06214216	      0.02662826	      0.03319484	      0.07903099	      0.05706476	      0.20624720	      0.26359600	     -0.05431834	      0.09916153	      0.00528176	      0.17051020	     -0.00570882	      0.35000507	      0.07253401	      0.07487232	      0.00000000	      0.00000000	      0.00000000	      0.00000000
      0.00149329	     -0.00026003	      0.00044715	      1.65580421	    -16.43522378	     84.10846299	      0.00000000	   -178.66586399	   -392.94805597	    674.06311330	      0.00000000	    733.71200501	   -410.35907103	   -262.50293077	      0.03778792	      0.03000485	      0.02522613	      0.02675353	      0.07374570	      0.06178536	      0.02591543	      0.03229119	      0.07858979	      0.05660131	      0.19330278	      0.24711503	     -0.05806406	      0.08804270	      0.00080704	      0.16378953	     -0.03232571	      0.31325436	      0.06654650	      0.06614270	      0.00000000	      0.00000000	      0.00000000	      0.00000000
      0.00164693	     -0.00030006	      0.00052275	      1.65411777	    -29.45980237	     68.11899014	      0.00000000	   -206.18200900	      0.00000000	    637.47453314	      0.00000000	    611.89989010	   -419.50107956	   -287.24488460	      0.03768378	      0.02990307	      0.02519991	      0.02668447	      0.07366142	      0.06169242	      0.02573336	      0.03205948	      0.07848148	      0.05648716	      0.19001413	      0.24288469	     -0.05904310	      0.08523390	     -0.00033671	      0.16203883	     -0.03912422	      0.30383111	      0.06507666	      0.06399253	      0.00000000	      0.00000000	      0.00000000	      0.00000000
      0.00180057	     -0.00034110	      0.00060209	      1.65232452	    -46.55527784	     48.25205396	      0.00000000	   -241.20772273	      0.00000000	    593.37973623	      0.00000000	    501.91834165	   -422.94922612	   -304.88210203	      0.03757543	      0.02979686	      0.02517228	      0.02661261	      0.07357324	      0.06159498	      0.02554783	      0.03182268	      0.07837278	      0.05637245	      0.18659263	      0.23847023	     -0.06007485	      0.08231146	     -0.00153336	      0.16020345	     -0.04605174	      0.29420051	      0.06360144	      0.06183187	      0.00000000	      0.00000000	      0.00000000	      0.00000000
      0.00256876	     -0.00055292	      0.00104410	      1.64186015	   -101.58178121	    -24.00047193	      0.00000000	   -355.83374374	      0.00000000	    425.40539737	      0.00000000	     86.93027927	   -385.64361665	   -318.45827268	      0.03698797	      0.02921517	      0.02501711	      0.02622344	      0.07308533	      0.06105453	      0.02461874	      0.03062262	      0.07785373	      0.05582286	      0.16804111	      0.21429302	     -0.06586864	      0.06648419	     -0.00815477	      0.15002354	     -0.08074397	      0.24539524	      0.05655742	      0.05147990	      0.00000000	      0.00000000	      0.00000000	      0.00000000
      0.00320459	     -0.00071762	      0.00143906	      1.63203927	   -121.25884877	    -60.81933308	      0.00000000	   -392.30533481	      0.00000000	    331.39698802	      0.00000000	   -128.15208141	   -317.67146637	   -274.26455043	      0.03648695	      0.02870845	      0.02487859	      0.02589519	      0.07265661	      0.06057446	      0.02390781	      0.02968304	      0.07748758	      0.05543343	      0.15221959	      0.19323196	     -0.07104098	      0.05313466	     -0.01397301	      0.14098101	     -0.10728958	      0.20718329	      0.05158839	      0.04414452	      0.00000000	      0.00000000	      0.00000000	      0.00000000
      0.00384043	     -0.00085928	      0.00183913	      1.62177586	   -126.22695724	    -84.32945837	      0.00000000	   -391.78608539	      0.00000000	    262.49613637	      0.00000000	   -267.48759367	   -242.07818269	   -211.37685727	      0.03600470	      0.02820779	      0.02473884	      0.02558476	      0.07223118	      0.06009053	      0.02328720	      0.02884154	      0.07719465	      0.05512031	      0.13699065	      0.17242268	     -0.07625944	      0.04050973	     -0.01974650	      0.13186560	     -0.13046305	      0.17296005	      0.04761295	      0.03824649	      0.00000000	      0.00000000	      0.00000000	      0.00000000
      0.00493570	     -0.00103117	      0.00251169	      1.60463477	   -114.52021867	   -104.87142620	      0.00000000	   -342.80491534	      0.00000000	    174.37731141	      0.00000000	   -381.55157127	   -124.56695824	   -101.30990476	      0.03526391	      0.02740237	      0.02450226	      0.02512147	      0.07154161	      0.05928272	      0.02245227	      0.02766357	      0.07685352	      0.05475209	      0.11359727	      0.13894643	     -0.08509334	      0.02166818	     -0.02910476	      0.11664976	     -0.16163913	      0.12505311	      0.04298346	      0.03131078	      0.00000000	      0.00000000	      0.00000000	      0.00000000
      0.00603098	     -0.00110110	      0.00314823	      1.59043778	    -88.64877941	   -108.77809746	      0.00000000	   -268.20643876	      0.00000000	    102.52513428	      0.00000000	   -361.81175281	    -46.70345808	    -21.18393760	      0.03466702	      0.02670164	      0.02426822	      0.02476001	      0.07092558	      0.05852629	      0.02188289	      0.02681142	      0.07667167	      0.05455045	      0.09474788	      0.10982110	     -0.09383199	      0.00696795	     -0.03746494	      0.10240160	     -0.18289955	      0.09039712	      0.04051555	      0.02751278	      0.00000000	      0.00000000	      0.00000000	      0.00000000
      0.00654706	     -0.00109835	      0.00343575	      1.58546014	    -74.14034542	   -106.77368574	      0.00000000	   -231.67800523	      0.00000000	     69.78756100	      0.00000000	   -335.03869705	    -25.08761745	      1.93215256	      0.03443856	      0.02641287	      0.02415701	      0.02462375	      0.07066110	      0.05818828	      0.02168589	      0.02650160	      0.07662104	      0.05449246	      0.08753356	      0.09781896	     -0.09798477	      0.00142647	     -0.04105420	      0.09603497	     -0.19025551	      0.07779670	      0.03982854	      0.02642035	      0.00000000	      0.00000000	      0.00000000	      0.00000000
      0.00674380	     -0.00109150	      0.00354359	      1.58391256	    -68.65551980	   -105.31141789	      0.00000000	      0.00000000	      0.00000000	     55.38879968	      0.00000000	   -323.92549011	    -18.94159617	      8.45621702	      0.03436020	      0.02630994	      0.02411427	      0.02457713	      0.07056426	      0.05806226	      0.02162032	      0.02639613	      0.07660553	      0.05447441	      0.08505889	      0.09354081	     -0.09958043	     -0.00046982	     -0.04236844	      0.09366120	     -0.19270374	      0.07350742	      0.03961796	      0.02608044	      0.00000000	      0.00000000	      0.00000000	      0.00000000
      0.00694054	     -0.00108136	      0.00365157	      1.58263773	    -64.19810677	   -102.55618721	      0.00000000	      0.00000000	      0.00000000	     32.32230060	      0.00000000	   -312.03299899	    -13.48986410	     13.93269607	      0.03428608	      0.02621135	      0.02406858	      0.02453041	      0.07046816	      0.05793620	      0.02155949	      0.02629704	      0.07659169	      0.05445813	      0.08271846	      0.08944306	     -0.10128659	     -0.00236987	     -0.04367263	      0.09128672	     -0.19497514	      0.06947751	      0.03943013	      0.02577371	      0.00000000	      0.00000000	      0.00000000	      0.00000000
      0.00792424	     -0.00098357	      0.00419778	      1.58080692	    -39.28829315	    -85.02036418	      0.00000000	      0.00000000	      0.00000000	    -72.91093705	      0.00000000	   -256.76355770	     -0.18739812	     25.89735728	      0.03397564	      0.02578599	      0.02378395	      0.02428069	      0.06999201	      0.05729904	      0.02131428	      0.02588286	      0.07653847	      0.05439362	      0.07291496	      0.07176347	     -0.11191478	     -0.01252561	     -0.05013446	      0.07928513	     -0.20413141	      0.05263333	      0.03870800	      0.02455867	      0.00000000	      0.00000000	      0.00000000	      0.00000000
      0.00892283	     -0.00081570	      0.00475458	      1.58626893	    -12.14540170	    -63.67826470	      0.00000000	      0.00000000	      0.00000000	   -163.14990338	      0.00000000	   -210.00464487	     -1.82858039	     20.38812634	      0.03375945	      0.02546431	      0.02342760	      0.02402119	      0.06952415	      0.05665434	      0.02113846	      0.02556812	      0.07649285	      0.05433836	      0.06608805	      0.05839296	     -0.12522060	     -0.02307926	     -0.05648382	      0.06714150	     -0.21069631	      0.03983293	      0.03808882	      0.02351767	      0.00000000	      0.00000000	      0.00000000	      0.00000000
